<svg xmlns="http://www.w3.org/2000/svg" xmlns:xlink="http://www.w3.org/1999/xlink" aria-hidden="true" role="img" class="iconify iconify--logos" width="31.88" height="32" preserveAspectRatio="xMidYMid meet" viewBox="0 0 256 257"><defs><linearGradient id="IconifyId1813088fe1fbc01fb466" x1="-.828%" x2="57.636%" y1="7.652%" y2="78.411%"><stop offset="0%" stop-color="#41D1FF"></stop><stop offset="100%" stop-color="#BD34FE"></stop></linearGradient><linearGradient id="IconifyId1813088fe1fbc01fb467" x1="43.376%" x2="50.316%" y1="2.242%" y2="89.03%"><stop offset="0%" stop-color="#FFEA83"></stop><stop offset="8.333%" stop-color="#FFDD35"></stop><stop offset="100%" stop-color="#FFA800"></stop></linearGradient></defs><path fill="url(#IconifyId1813088fe1fbc01fb466)" d="M255.153 37.938L134.897 252.976c-2.483 4.144-8.861 4.553-12.064.643L0 37.938c-2.906-4.26-.229-10.646 5.529-10.646h24.029a6.505 6.505 0 0 1 5.752 3.362l10.94 23.257h71.772l10.939-23.257a6.505 6.505 0 0 1 5.752-3.362h24.029c5.816 0 8.395 6.45 5.529 10.646z"></path><path fill="url(#IconifyId1813088fe1fbc01fb467)" d="M185.432.063L96.44 17.557a6.696 6.696 0 0 0-5.869 6.671v76.383h56.421V27.375c0-3.91 3.782-6.618 7.652-5.854l50.203 11.275a6.696 6.696 0 0 1 5.869 6.671v76.383h56.421V27.375c0-3.91-3.782-6.618-7.652-5.854z"></path></svg>
